<svg id="Livello_1" data-name="Livello 1" xmlns="http://www.w3.org/2000/svg" viewBox="0 0 199.85 173.03"><defs><style>.cls-1{fill:none;stroke:#000;stroke-miterlimit:10;}</style></defs><path class="cls-1" d="M720,252.69v65.74a20,20,0,0,1-20,20H596a20,20,0,0,1-20-20V252.85l0,0,18-15.09v62.7a20,20,0,0,0,20,20h68a20,20,0,0,0,20-20V237.57l18,15.08Z" transform="translate(-548.17 -165.9)"/><path class="cls-1" d="M745,255l-5.13,4.31a9.68,9.68,0,0,1-12,0L720,252.69l0,0-18-15.08L697.76,234l-21.43-18-22.22-18.67a9.68,9.68,0,0,0-12,0L619.87,216l-21.43,18L594,237.73l-18,15.09,0,0-7.68,6.46a9.68,9.68,0,0,1-12,0L551.16,255a6.37,6.37,0,0,1,0-10.1l90.93-76.41a9.68,9.68,0,0,1,12,0L745,244.9A6.37,6.37,0,0,1,745,255Z" transform="translate(-548.17 -165.9)"/></svg>